<svg xmlns="http://www.w3.org/2000/svg" viewBox="0 0 512 512" fill="none">
  <rect width="512" height="512" rx="128" fill="#0f172a"/>
  <rect x="24" y="24" width="464" height="464" rx="104" stroke="#3b82f6" stroke-width="8" stroke-opacity="0.3"/>
  <path d="M120 160h272a24 24 0 0 1 24 24v176a24 24 0 0 1-24 24H210l-66 54c-7 6-18 1-18-8v-46h-6a24 24 0 0 1-24-24V184a24 24 0 0 1 24-24z" fill="#1e293b" stroke="#38bdf8" stroke-width="16" stroke-linejoin="round"/>
  <path d="M170 230h172M170 280h120M170 330h80" stroke="#f8fafc" stroke-width="14" stroke-linecap="round"/>
  <circle cx="370" cy="330" r="16" fill="#38bdf8"/>
  <path d="M320 120l40 40-40 40" stroke="#60a5fa" stroke-width="12" stroke-linecap="round" stroke-linejoin="round"/>
</svg>
